<?xml version="1.0" standalone="no"?>
<!DOCTYPE svg PUBLIC "-//W3C//DTD SVG 20010904//EN"
 "http://www.w3.org/TR/2001/REC-SVG-20010904/DTD/svg10.dtd">
<svg version="1.0" xmlns="http://www.w3.org/2000/svg"
 width="180.000000pt" height="180.000000pt" viewBox="0 0 180.000000 180.000000"
 preserveAspectRatio="xMidYMid meet">
<metadata>
Created by potrace 1.14, written by Peter Selinger 2001-2017
</metadata>
<g transform="translate(0.000000,180.000000) scale(0.100000,-0.100000)"
fill="#000000" stroke="none">
<path d="M835 1746 c-17 -7 -82 -24 -145 -37 -99 -20 -140 -23 -294 -21 -156
2 -184 0 -221 -17 -84 -37 -145 -130 -153 -233 -4 -48 0 -67 22 -113 27 -54
97 -125 124 -125 7 0 33 14 57 31 l43 31 -24 35 c-40 60 -30 99 35 133 35 18
100 4 166 -35 l57 -35 131 93 c72 50 158 112 191 135 34 24 73 51 88 60 16 10
28 21 28 25 0 10 -61 87 -69 87 -3 -1 -20 -7 -36 -14z"/>
<path d="M935 1564 c-332 -215 -447 -290 -641 -417 -71 -46 -139 -97 -149
-113 -38 -56 -20 -155 35 -196 43 -31 90 -33 158 -5 l62 25 1 -37 c0 -20 2
-72 3 -116 1 -44 0 -87 -2 -96 -2 -9 -22 -22 -45 -28 -87 -25 -225 -100 -276
-150 -62 -60 -79 -100 -76 -172 3 -93 75 -191 160 -219 79 -26 213 14 269 80
35 42 33 56 -8 64 -119 22 -112 143 9 161 76 12 352 -1 435 -20 99 -22 219
-81 305 -149 119 -95 109 -90 147 -70 56 29 170 118 227 177 159 165 239 381
247 662 4 147 -11 227 -63 337 -67 142 -204 280 -418 424 -33 22 -65 43 -70
46 -6 4 -145 -81 -310 -188z m267 -212 c128 -102 233 -237 263 -339 31 -104
16 -240 -37 -350 -56 -116 -70 -120 -271 -88 l-119 19 -44 57 -44 57 0 289 0
289 88 62 c48 34 88 62 89 62 1 0 35 -26 75 -58z m-380 -171 c9 -13 13 -44 12
-88 -1 -37 -3 -130 -3 -205 -1 -124 -3 -140 -21 -158 -25 -25 -32 -25 -61 -1
-22 18 -22 21 -23 229 0 159 4 214 13 226 19 22 67 20 83 -3z"/>
</g>
</svg>
